<svg id="Layer_1_copy" data-name="Layer 1 copy" xmlns="http://www.w3.org/2000/svg" viewBox="0 0 421 289.31"><defs><style>.cls-1{fill:#fff;}.cls-2{fill:#231f20;}</style></defs><ellipse class="cls-1" cx="193.92" cy="137.67" rx="137.29" ry="85.8"/><g id="Artwork_1" data-name="Artwork 1"><path class="cls-2" d="M314.66,223.23a5.47,5.47,0,1,1-5.45-5.33,5.36,5.36,0,0,1,5.45,5.33m-9.58,0a4.12,4.12,0,0,0,4.16,4.25,4.07,4.07,0,0,0,4.05-4.22,4.11,4.11,0,1,0-8.21,0m3.28,2.79h-1.23v-5.33a11.41,11.41,0,0,1,2-.16,3.28,3.28,0,0,1,1.85.39,1.49,1.49,0,0,1,.52,1.17,1.35,1.35,0,0,1-1.1,1.23v.07a1.55,1.55,0,0,1,1,1.3,4.05,4.05,0,0,0,.39,1.33h-1.33a4.61,4.61,0,0,1-.42-1.3c-.1-.58-.42-.84-1.1-.84h-.59Zm0-3H309c.68,0,1.23-.23,1.23-.78s-.36-.81-1.13-.81a3.24,3.24,0,0,0-.69.06Z"/><path class="cls-2" d="M199.51,41.9c-88.16,0-159.61,44.31-159.61,99s71.45,99,159.61,99,159.63-44.31,159.63-99-71.47-99-159.63-99m93.77,73.38c-4.55-4.56-16.43-11.73-16.43-11.73l-54,63.18-.25,28.54L243.26,193s2.84,10.64,4.65,21.55c-54.26,10.91-94.87-.41-94.87-.41l4.06-20.8,19.15,2V166.05s-42-49.27-55-65.09c-8.11,3.5-16.81,10.2-16.81,10.2L91.51,94.82c33.59-29.56,92.81-32.31,92.81-32.31s.84,10.51,1.47,22.61c-9.7,1-20.34,2.59-20.34,2.59l45.6,53.05,39.67-47.28-17.53-3.84s2-13,3.46-22.82c43.41,4.14,70.85,31,70.85,31s-8.61,10.63-14.22,17.43"/></g></svg>