<svg id="Layer_1_copy" data-name="Layer 1 copy" xmlns="http://www.w3.org/2000/svg" viewBox="0 0 421 289.31"><defs><style>.cls-1{fill:#fff;}</style></defs><g id="Artwork_2" data-name="Artwork 2"><path class="cls-1" d="M323.27,241.25a5.81,5.81,0,1,1-5.79-5.65,5.68,5.68,0,0,1,5.79,5.65m-10.17,0a4.39,4.39,0,0,0,4.42,4.51,4.33,4.33,0,0,0,4.3-4.48,4.36,4.36,0,1,0-8.72,0m3.48,3h-1.3v-5.65a11.71,11.71,0,0,1,2.17-.17,3.56,3.56,0,0,1,2,.41A1.57,1.57,0,0,1,320,240a1.45,1.45,0,0,1-1.17,1.31v.07a1.67,1.67,0,0,1,1,1.38,4.53,4.53,0,0,0,.41,1.41h-1.41a5,5,0,0,1-.44-1.38c-.11-.62-.45-.89-1.17-.89h-.63Zm0-3.2h.62c.72,0,1.31-.25,1.31-.83s-.38-.86-1.21-.86a2.84,2.84,0,0,0-.72.07Z"/><path class="cls-1" d="M207.06,44.83c-93.54,0-169.34,47-169.34,105s75.8,105,169.34,105,169.38-47,169.38-105-75.84-105-169.38-105m99.5,77.85c-4.84-4.82-17.44-12.44-17.44-12.44l-57.24,67-.27,30.27,21.87-2.44s3,11.28,4.93,22.86c-57.57,11.58-100.65-.43-100.65-.43l4.3-22.07,20.32,2.08v-31s-44.57-52.28-58.33-69.05c-8.61,3.71-17.84,10.82-17.84,10.82L92.48,101C128.12,69.62,191,66.7,191,66.7s.89,11.15,1.55,24c-10.29,1-21.57,2.75-21.57,2.75l48.37,56.28,42.09-50.16L242.8,95.49s2.11-13.77,3.67-24.22c46.06,4.4,75.17,32.92,75.17,32.92s-9.13,11.28-15.08,18.49"/></g></svg>